<svg id="visual" viewBox="0 0 900 600" width="900" height="600" xmlns="http://www.w3.org/2000/svg" xmlns:xlink="http://www.w3.org/1999/xlink" version="1.1"><g stroke-width="1" stroke-linejoin="bevel"><path d="M435 284L383 215L334 229Z" fill="#081a28" stroke="#081a28"></path><path d="M334 229L313 292L435 284Z" fill="#081a28" stroke="#081a28"></path><path d="M313 292L322 370L435 284Z" fill="#1d4e6b" stroke="#1d4e6b"></path><path d="M322 370L424 391L435 284Z" fill="#277297" stroke="#277297"></path><path d="M221 199L224 294L313 292Z" fill="#112e42" stroke="#112e42"></path><path d="M313 292L234 377L322 370Z" fill="#205a7a" stroke="#205a7a"></path><path d="M424 391L521 323L435 284Z" fill="#205a7a" stroke="#205a7a"></path><path d="M435 284L537 215L383 215Z" fill="#112e42" stroke="#112e42"></path><path d="M383 215L334 117L334 229Z" fill="#15384f" stroke="#15384f"></path><path d="M334 229L221 199L313 292Z" fill="#277297" stroke="#277297"></path><path d="M366 101L334 117L383 215Z" fill="#19435d" stroke="#19435d"></path><path d="M334 117L221 199L334 229Z" fill="#1d4e6b" stroke="#1d4e6b"></path><path d="M224 294L234 377L313 292Z" fill="#246688" stroke="#246688"></path><path d="M322 370L395 464L424 391Z" fill="#112e42" stroke="#112e42"></path><path d="M521 323L537 215L435 284Z" fill="#297ea6" stroke="#297ea6"></path><path d="M491 117L366 101L383 215Z" fill="#0c2435" stroke="#0c2435"></path><path d="M268 495L395 464L322 370Z" fill="#246688" stroke="#246688"></path><path d="M424 391L515 426L521 323Z" fill="#0c2435" stroke="#0c2435"></path><path d="M537 215L491 117L383 215Z" fill="#081a28" stroke="#081a28"></path><path d="M395 464L515 426L424 391Z" fill="#19435d" stroke="#19435d"></path><path d="M521 323L581 313L537 215Z" fill="#00101c" stroke="#00101c"></path><path d="M515 426L581 313L521 323Z" fill="#15384f" stroke="#15384f"></path><path d="M234 377L268 495L322 370Z" fill="#15384f" stroke="#15384f"></path><path d="M230 0L171 112L334 117Z" fill="#19435d" stroke="#19435d"></path><path d="M334 117L171 112L221 199Z" fill="#112e42" stroke="#112e42"></path><path d="M221 199L71 275L224 294Z" fill="#081a28" stroke="#081a28"></path><path d="M224 294L108 432L234 377Z" fill="#081a28" stroke="#081a28"></path><path d="M395 464L504 507L515 426Z" fill="#19435d" stroke="#19435d"></path><path d="M515 426L630 436L581 313Z" fill="#00101c" stroke="#00101c"></path><path d="M398 600L504 507L395 464Z" fill="#15384f" stroke="#15384f"></path><path d="M685 274L634 215L581 313Z" fill="#297ea6" stroke="#297ea6"></path><path d="M581 313L634 215L537 215Z" fill="#081a28" stroke="#081a28"></path><path d="M537 215L588 61L491 117Z" fill="#00101c" stroke="#00101c"></path><path d="M486 0L373 0L366 101Z" fill="#297ea6" stroke="#297ea6"></path><path d="M366 101L325 0L334 117Z" fill="#277297" stroke="#277297"></path><path d="M486 0L366 101L491 117Z" fill="#246688" stroke="#246688"></path><path d="M373 0L325 0L366 101Z" fill="#297ea6" stroke="#297ea6"></path><path d="M171 112L107 163L221 199Z" fill="#1d4e6b" stroke="#1d4e6b"></path><path d="M234 377L169 535L268 495Z" fill="#081a28" stroke="#081a28"></path><path d="M171 112L139 102L107 163Z" fill="#00101c" stroke="#00101c"></path><path d="M138 0L139 102L171 112Z" fill="#081a28" stroke="#081a28"></path><path d="M588 61L486 0L491 117Z" fill="#112e42" stroke="#112e42"></path><path d="M504 507L630 436L515 426Z" fill="#15384f" stroke="#15384f"></path><path d="M107 163L71 275L221 199Z" fill="#205a7a" stroke="#205a7a"></path><path d="M668 138L588 61L537 215Z" fill="#081a28" stroke="#081a28"></path><path d="M71 275L108 432L224 294Z" fill="#277297" stroke="#277297"></path><path d="M734 360L685 274L581 313Z" fill="#0c2435" stroke="#0c2435"></path><path d="M634 215L668 138L537 215Z" fill="#297ea6" stroke="#297ea6"></path><path d="M325 0L230 0L334 117Z" fill="#246688" stroke="#246688"></path><path d="M685 274L686 234L634 215Z" fill="#297ea6" stroke="#297ea6"></path><path d="M686 234L668 138L634 215Z" fill="#15384f" stroke="#15384f"></path><path d="M288 600L398 600L268 495Z" fill="#205a7a" stroke="#205a7a"></path><path d="M268 495L398 600L395 464Z" fill="#297ea6" stroke="#297ea6"></path><path d="M504 507L611 539L630 436Z" fill="#19435d" stroke="#19435d"></path><path d="M108 432L169 535L234 377Z" fill="#205a7a" stroke="#205a7a"></path><path d="M206 600L288 600L268 495Z" fill="#081a28" stroke="#081a28"></path><path d="M398 600L483 600L504 507Z" fill="#277297" stroke="#277297"></path><path d="M108 432L127 513L169 535Z" fill="#19435d" stroke="#19435d"></path><path d="M169 535L206 600L268 495Z" fill="#205a7a" stroke="#205a7a"></path><path d="M0 469L127 513L108 432Z" fill="#277297" stroke="#277297"></path><path d="M483 600L611 539L504 507Z" fill="#277297" stroke="#277297"></path><path d="M630 436L734 360L581 313Z" fill="#112e42" stroke="#112e42"></path><path d="M708 0L601 0L588 61Z" fill="#277297" stroke="#277297"></path><path d="M588 61L601 0L486 0Z" fill="#0c2435" stroke="#0c2435"></path><path d="M230 0L138 0L171 112Z" fill="#112e42" stroke="#112e42"></path><path d="M0 85L0 160L107 163Z" fill="#15384f" stroke="#15384f"></path><path d="M0 160L0 280L71 275Z" fill="#205a7a" stroke="#205a7a"></path><path d="M73 600L206 600L169 535Z" fill="#277297" stroke="#277297"></path><path d="M685 274L785 205L686 234Z" fill="#00101c" stroke="#00101c"></path><path d="M686 234L774 138L668 138Z" fill="#277297" stroke="#277297"></path><path d="M709 463L734 360L630 436Z" fill="#205a7a" stroke="#205a7a"></path><path d="M0 160L71 275L107 163Z" fill="#0c2435" stroke="#0c2435"></path><path d="M71 275L0 401L108 432Z" fill="#205a7a" stroke="#205a7a"></path><path d="M611 539L709 463L630 436Z" fill="#297ea6" stroke="#297ea6"></path><path d="M0 85L107 163L139 102Z" fill="#0c2435" stroke="#0c2435"></path><path d="M0 280L0 401L71 275Z" fill="#0c2435" stroke="#0c2435"></path><path d="M127 513L73 600L169 535Z" fill="#297ea6" stroke="#297ea6"></path><path d="M483 600L626 600L611 539Z" fill="#205a7a" stroke="#205a7a"></path><path d="M611 539L704 600L709 463Z" fill="#205a7a" stroke="#205a7a"></path><path d="M830 296L685 274L734 360Z" fill="#081a28" stroke="#081a28"></path><path d="M830 296L785 205L685 274Z" fill="#246688" stroke="#246688"></path><path d="M668 138L708 0L588 61Z" fill="#112e42" stroke="#112e42"></path><path d="M138 0L0 85L139 102Z" fill="#246688" stroke="#246688"></path><path d="M0 401L0 469L108 432Z" fill="#205a7a" stroke="#205a7a"></path><path d="M785 205L774 138L686 234Z" fill="#19435d" stroke="#19435d"></path><path d="M709 463L790 381L734 360Z" fill="#112e42" stroke="#112e42"></path><path d="M775 505L790 381L709 463Z" fill="#277297" stroke="#277297"></path><path d="M774 138L708 0L668 138Z" fill="#00101c" stroke="#00101c"></path><path d="M0 469L73 600L127 513Z" fill="#19435d" stroke="#19435d"></path><path d="M790 381L830 296L734 360Z" fill="#081a28" stroke="#081a28"></path><path d="M900 63L823 0L774 138Z" fill="#277297" stroke="#277297"></path><path d="M704 600L775 505L709 463Z" fill="#205a7a" stroke="#205a7a"></path><path d="M790 381L900 338L830 296Z" fill="#277297" stroke="#277297"></path><path d="M626 600L704 600L611 539Z" fill="#15384f" stroke="#15384f"></path><path d="M138 0L0 0L0 85Z" fill="#112e42" stroke="#112e42"></path><path d="M0 469L0 600L73 600Z" fill="#246688" stroke="#246688"></path><path d="M900 163L774 138L785 205Z" fill="#112e42" stroke="#112e42"></path><path d="M774 138L823 0L708 0Z" fill="#19435d" stroke="#19435d"></path><path d="M900 438L900 338L790 381Z" fill="#205a7a" stroke="#205a7a"></path><path d="M830 296L900 163L785 205Z" fill="#081a28" stroke="#081a28"></path><path d="M900 438L790 381L775 505Z" fill="#297ea6" stroke="#297ea6"></path><path d="M900 338L900 163L830 296Z" fill="#0c2435" stroke="#0c2435"></path><path d="M900 525L900 438L775 505Z" fill="#1d4e6b" stroke="#1d4e6b"></path><path d="M704 600L829 600L775 505Z" fill="#081a28" stroke="#081a28"></path><path d="M900 163L900 63L774 138Z" fill="#081a28" stroke="#081a28"></path><path d="M829 600L900 525L775 505Z" fill="#00101c" stroke="#00101c"></path><path d="M900 63L900 0L823 0Z" fill="#00101c" stroke="#00101c"></path><path d="M829 600L900 600L900 525Z" fill="#205a7a" stroke="#205a7a"></path></g></svg>